<svg width="56" height="40" viewBox="0 0 56 40" fill="none" xmlns="http://www.w3.org/2000/svg">
<path d="M21 19H25C26.1 19 27 18.1 27 17V13C27 11.9 26.1 11 25 11H21C19.9 11 19 11.9 19 13V17C19 18.1 19.9 19 21 19Z" fill="#121316"/>
<path d="M21 29H25C26.1 29 27 28.1 27 27V23C27 21.9 26.1 21 25 21H21C19.9 21 19 21.9 19 23V27C19 28.1 19.9 29 21 29Z" fill="#121316"/>
<path d="M29 13V17C29 18.1 29.9 19 31 19H35C36.1 19 37 18.1 37 17V13C37 11.9 36.1 11 35 11H31C29.9 11 29 11.9 29 13Z" fill="#121316"/>
<path d="M31 29H35C36.1 29 37 28.1 37 27V23C37 21.9 36.1 21 35 21H31C29.9 21 29 21.9 29 23V27C29 28.1 29.9 29 31 29Z" fill="#121316"/>
</svg>
