<svg width="56" height="40" viewBox="0 0 56 40" fill="none" xmlns="http://www.w3.org/2000/svg">
<path d="M28.7875 29.5024L18.9975 19.7124V21.7124C18.9975 22.2424 19.2075 22.7524 19.5875 23.1224L27.3775 30.9124C28.1575 31.6924 29.4275 31.6924 30.2075 30.9124L36.4175 24.7024C37.1975 23.9224 37.1975 22.6524 36.4175 21.8724L28.7875 29.5024Z" fill="#121316"/>
<path d="M27.3775 25.9124C28.1575 26.6924 29.4275 26.6924 30.2075 25.9124L36.4175 19.7024C37.1975 18.9224 37.1975 17.6524 36.4175 16.8724L28.6275 9.08244C28.2475 8.71244 27.7375 8.50244 27.2075 8.50244H20.9975C19.8975 8.50244 18.9975 9.40244 18.9975 10.5024V16.7124C18.9975 17.2424 19.2075 17.7524 19.5875 18.1224L27.3775 25.9124ZM23.2475 11.5024C23.9375 11.5024 24.4975 12.0624 24.4975 12.7524C24.4975 13.4424 23.9375 14.0024 23.2475 14.0024C22.5575 14.0024 21.9975 13.4424 21.9975 12.7524C21.9975 12.0624 22.5575 11.5024 23.2475 11.5024Z" fill="#121316"/>
</svg>
