<svg width="56" height="40" viewBox="0 0 56 40" fill="none" xmlns="http://www.w3.org/2000/svg">
<path d="M28 17H32C32.55 17 33 16.55 33 16C33 15.45 32.55 15 32 15H28C27.45 15 27 15.45 27 16C27 16.55 27.45 17 28 17ZM28 21H32C32.55 21 33 20.55 33 20C33 19.45 32.55 19 32 19H28C27.45 19 27 19.45 27 20C27 20.55 27.45 21 28 21ZM28 25H32C32.55 25 33 24.55 33 24C33 23.45 32.55 23 32 23H28C27.45 23 27 23.45 27 24C27 24.55 27.45 25 28 25ZM23 15H25V17H23V15ZM23 19H25V21H23V19ZM23 23H25V25H23V23ZM36 11H20C19.45 11 19 11.45 19 12V28C19 28.55 19.45 29 20 29H36C36.55 29 37 28.55 37 28V12C37 11.45 36.55 11 36 11ZM35 27H21V13H35V27Z" fill="#121316"/>
</svg>
