<svg width="56" height="40" viewBox="0 0 56 40" fill="none" xmlns="http://www.w3.org/2000/svg">
<path d="M35 11H30.82C30.4 9.84 29.3 9 28 9C26.7 9 25.6 9.84 25.18 11H21C19.9 11 19 11.9 19 13V29C19 30.1 19.9 31 21 31H35C36.1 31 37 30.1 37 29V13C37 11.9 36.1 11 35 11ZM28 11C28.55 11 29 11.45 29 12C29 12.55 28.55 13 28 13C27.45 13 27 12.55 27 12C27 11.45 27.45 11 28 11ZM34 29H22C21.45 29 21 28.55 21 28V14C21 13.45 21.45 13 22 13H23V14C23 15.1 23.9 16 25 16H31C32.1 16 33 15.1 33 14V13H34C34.55 13 35 13.45 35 14V28C35 28.55 34.55 29 34 29Z" fill="#121316"/>
</svg>
