<svg width="33" height="30" viewBox="0 0 33 30" fill="none" xmlns="http://www.w3.org/2000/svg">
<path d="M5.26025 3.31703L0.83011 11.62C0.277331 12.6593 0 13.7995 0 14.9416C0 16.0836 0.277331 17.2242 0.83011 18.2632L5.26025 26.5661C6.07681 28.0999 7.67382 29.0576 9.41193 29.0576H14.1179V26.7054H14.116C13.2479 26.7054 12.4494 26.2275 12.0411 25.4606L7.61248 17.1561C7.2422 16.4637 7.05782 15.7036 7.05782 14.9416C7.05782 14.1796 7.2422 13.4195 7.61248 12.7271L12.0411 4.42259C12.4494 3.6557 13.2479 3.17742 14.116 3.17742H14.1179V0.825195H9.41193C7.67382 0.825195 6.07681 1.78325 5.26025 3.31703Z" fill="black"/>
<path d="M32.1089 11.62L27.6788 3.31703C26.8618 1.78325 25.2652 0.825195 23.5271 0.825195H18.8211V3.17742H18.823C19.6911 3.17742 20.4896 3.6557 20.8979 4.42259L25.3265 12.7271C25.6964 13.4195 25.8808 14.1796 25.8808 14.9416C25.8808 15.7036 25.6964 16.4637 25.3265 17.1561L20.8979 25.4606C20.4896 26.2275 19.6911 26.7054 18.823 26.7054H18.8211V29.0576H23.5271C25.2652 29.0576 26.8618 28.0999 27.6788 26.5661L32.1089 18.2632C32.6617 17.2242 32.939 16.0836 32.939 14.9416C32.939 13.7995 32.6617 12.6593 32.1089 11.62Z" fill="black"/>
</svg>
