<svg width="56" height="40" viewBox="0 0 56 40" fill="none" xmlns="http://www.w3.org/2000/svg">
<path d="M35.5 20C35.5 19.77 35.49 19.55 35.47 19.32L37.33 17.91C37.73 17.61 37.84 17.05 37.59 16.61L35.72 13.38C35.47 12.94 34.93 12.76 34.47 12.96L32.32 13.87C31.95 13.61 31.56 13.38 31.15 13.19L30.86 10.88C30.8 10.38 30.37 10 29.87 10H26.14C25.63 10 25.2 10.38 25.14 10.88L24.85 13.19C24.44 13.38 24.05 13.61 23.68 13.87L21.53 12.96C21.07 12.76 20.53 12.94 20.28 13.38L18.41 16.62C18.16 17.06 18.27 17.61 18.67 17.92L20.53 19.33C20.51 19.55 20.5 19.77 20.5 20C20.5 20.23 20.51 20.45 20.53 20.68L18.67 22.09C18.27 22.39 18.16 22.95 18.41 23.39L20.28 26.62C20.53 27.06 21.07 27.24 21.53 27.04L23.68 26.13C24.05 26.39 24.44 26.62 24.85 26.81L25.14 29.12C25.2 29.62 25.63 30 26.13 30H29.86C30.36 30 30.79 29.62 30.85 29.12L31.14 26.81C31.55 26.62 31.94 26.39 32.31 26.13L34.46 27.04C34.92 27.24 35.46 27.06 35.71 26.62L37.58 23.39C37.83 22.95 37.72 22.4 37.32 22.09L35.46 20.68C35.49 20.45 35.5 20.23 35.5 20ZM28.04 23.5C26.11 23.5 24.54 21.93 24.54 20C24.54 18.07 26.11 16.5 28.04 16.5C29.97 16.5 31.54 18.07 31.54 20C31.54 21.93 29.97 23.5 28.04 23.5Z" fill="#121316"/>
</svg>
