<svg width="36" height="36" viewBox="0 0 36 36" fill="none" xmlns="http://www.w3.org/2000/svg">
<path d="M18 12.9168C18.9666 12.9168 19.75 13.7002 19.75 14.6668C19.75 15.6335 18.9666 16.4168 18 16.4168C17.0333 16.4168 16.25 15.6335 16.25 14.6668C16.25 13.7002 17.0333 12.9168 18 12.9168ZM18 20.4168C20.475 20.4168 23.0833 21.6335 23.0833 22.1668V23.0835H12.9166V22.1668C12.9166 21.6335 15.525 20.4168 18 20.4168ZM18 11.3335C16.1583 11.3335 14.6666 12.8252 14.6666 14.6668C14.6666 16.5085 16.1583 18.0002 18 18.0002C19.8416 18.0002 21.3333 16.5085 21.3333 14.6668C21.3333 12.8252 19.8416 11.3335 18 11.3335ZM18 18.8335C15.775 18.8335 11.3333 19.9502 11.3333 22.1668V24.6668H24.6666V22.1668C24.6666 19.9502 20.225 18.8335 18 18.8335Z" fill="white"/>
</svg>
